<?xml version="1.0" encoding="UTF-8"?> <svg xmlns="http://www.w3.org/2000/svg" id="Layer_1" data-name="Layer 1" viewBox="0 0 50 50"><defs><style> .cls-1 { fill: #009d9b; } </style></defs><title>icon_mirror</title><path class="cls-1" d="M25.29,8.59a1.32,1.32,0,0,1,1.32,1.32v6.17a1.32,1.32,0,0,1-2.64,0V9.91A1.32,1.32,0,0,1,25.29,8.59Z"></path><path class="cls-1" d="M25.29,20.66A1.32,1.32,0,0,1,26.61,22v6.17a1.32,1.32,0,0,1-2.64,0V22A1.32,1.32,0,0,1,25.29,20.66Z"></path><path class="cls-1" d="M25.29,32.82a1.32,1.32,0,0,1,1.32,1.32V40.3a1.32,1.32,0,1,1-2.64,0V34.14A1.32,1.32,0,0,1,25.29,32.82Z"></path><path class="cls-1" d="M32,11.78,42.6,8.53a1.32,1.32,0,0,1,1.71,1.26V40.62a1.32,1.32,0,0,1-1.71,1.27L32,38.64a1.32,1.32,0,0,1-.93-1.26V13A1.32,1.32,0,0,1,32,11.78ZM33.74,36.4l7.93,2.44V11.58L33.74,14Z"></path><path class="cls-1" d="M6.8,8.73A1.32,1.32,0,0,1,8,8.53l10.57,3.25A1.32,1.32,0,0,1,19.47,13V37.38a1.32,1.32,0,0,1-.93,1.26L8,41.89a1.32,1.32,0,0,1-1.71-1.27V9.79A1.31,1.31,0,0,1,6.8,8.73ZM8.9,38.84l7.93-2.44V14L8.9,11.58Z"></path></svg> 