<?xml version="1.0" encoding="UTF-8"?> <svg xmlns="http://www.w3.org/2000/svg" id="Layer_1" data-name="Layer 1" viewBox="0 0 50 50"><defs><style> .cls-1 { fill: #009d9b; } </style></defs><title>icon_cash</title><g><path class="cls-1" d="M36.27,22v0a.5.5,0,0,0,0-.12h0a.49.49,0,0,0,0-.11v0a.25.25,0,0,0,0-.07v-.05l-.05-.06v0L36,21.4v0l-.08-.06,0,0-.1-.07-14.2-8.07L29.75,8,43.46,15.8l-5.77,3.64a1,1,0,0,0,1,1.63l7.13-4.49a1,1,0,0,0,.45-.84,1,1,0,0,0-.49-.82L30.21,6.05a1,1,0,0,0-1,0l-10,6.31h0l-5,3.15h0l-10,6.32a1,1,0,0,0-.45.83,1,1,0,0,0,.49.82l15.6,8.87a.94.94,0,0,0,.48.13.92.92,0,0,0,.51-.15l7.14-4.49a1,1,0,0,0,.3-1.33,1,1,0,0,0-1.33-.3l-6.64,4.18L6.54,22.63l8.18-5.15,14.61,8.31v11a1,1,0,0,0,.5.84,1,1,0,0,0,.47.12,1,1,0,0,0,.51-.15l5-3.15a1,1,0,0,0,.45-.82V22.07h0Zm-5,13.09V25.23a1,1,0,0,0-.49-.84l-14.2-8.07,3.16-2,13.7,7.79-1.2.75a1,1,0,0,0-.3,1.33,1,1,0,0,0,1.33.3l1.09-.68v9.29Z"></path><path class="cls-1" d="M44.82,18.8l-7.13,4.49a1,1,0,0,0-.3,1.33,1,1,0,0,0,.81.45,1,1,0,0,0,.52-.15l7.13-4.49a1,1,0,1,0-1-1.63Z"></path><path class="cls-1" d="M26.89,30.09l-6.64,4.19L5.14,25.69a1,1,0,0,0-.95,1.68l15.6,8.87a1,1,0,0,0,.48.12,1,1,0,0,0,.51-.14l7.14-4.5a1,1,0,1,0-1-1.63Z"></path><path class="cls-1" d="M44.82,22.66l-7.13,4.49a1,1,0,0,0,.51,1.78,1,1,0,0,0,.52-.15l7.13-4.49a1,1,0,1,0-1-1.63Z"></path><path class="cls-1" d="M26.89,34l-6.64,4.18L5.14,29.55a1,1,0,1,0-.95,1.67l15.6,8.87a.94.94,0,0,0,.48.13.92.92,0,0,0,.51-.15l7.14-4.49a1,1,0,0,0,.3-1.33A1,1,0,0,0,26.89,34Z"></path><path class="cls-1" d="M44.82,26.51,37.69,31a1,1,0,0,0-.3,1.33,1,1,0,0,0,.81.45.9.9,0,0,0,.52-.15l7.13-4.49a1,1,0,1,0-1-1.63Z"></path><path class="cls-1" d="M26.89,37.8,20.25,42,5.14,33.4a1,1,0,0,0-.95,1.68L19.79,44a1,1,0,0,0,.48.12,1,1,0,0,0,.51-.14l7.14-4.5a1,1,0,1,0-1-1.63Z"></path></g></svg> 