<svg id="Layer_1" data-name="Layer 1" xmlns="http://www.w3.org/2000/svg" viewBox="0 0 223.41 161.81">
  <defs>
    <style>
      .cls-1 {
        fill: #009d9b;
      }
    </style>
  </defs>
  <title>pattern1</title>
  <g>
    <path class="cls-1" d="M160.65,26.8v97.89H62.76V26.8h97.89m2.72-2.72H60V127.41H163.37V24.08Z"/>
    <path class="cls-1" d="M111.71,6.52l69.22,69.22L111.71,145,42.48,75.74,111.71,6.52m0-3.84L38.64,75.74l73.07,73.07,73.06-73.07L111.71,2.68Z"/>
    <path class="cls-1" d="M111.71,61.24A14.51,14.51,0,1,1,97.2,75.74a14.52,14.52,0,0,1,14.51-14.5m0-2.72a17.22,17.22,0,1,0,17.22,17.22,17.22,17.22,0,0,0-17.22-17.22Z"/>
  </g>
</svg>
