<?xml version="1.0" encoding="utf-8"?>
<!-- Generator: Adobe Illustrator 21.1.0, SVG Export Plug-In . SVG Version: 6.00 Build 0)  -->
<svg version="1.1" id="regular" xmlns="http://www.w3.org/2000/svg" xmlns:xlink="http://www.w3.org/1999/xlink" x="0px" y="0px"
	 viewBox="0 0 512 512" style="enable-background:new 0 0 512 512;" xml:space="preserve">
<style type="text/css">
	.st0{fill:#FFFFFF;}
</style>
<g>
	<path class="st0" d="M246.4,92.1c6,0,11.9,0,17.9,0c1.3,0.2,2.5,0.4,3.8,0.5c5.2,0.6,10.4,1,15.5,1.9c21.5,3.6,41.4,11.3,59.8,23
		c4.2,2.7,8.2,5.6,12.4,8.6c-12.8,16.7-25.4,33-38,49.4c-43.1-32.6-99.7-24.5-132.7,8c-31,30.5-40.7,78.8-18.6,120.1
		c20.7,38.9,64.6,61.1,110.8,51.5c40.7-8.5,67.8-41.2,74.6-67.9c-31.9,0-63.8,0-95.7,0c0-20.9,0-41.5,0-62.4c1.6,0,2.9,0,4.3,0
		c51.7,0,103.5,0,155.2,0c1.4,0,2.8-0.1,4.2-0.1c0,13.7,0,27.3,0,41c-0.3,2.3-0.5,4.6-0.8,6.9c-3.9,35.3-17.4,66.4-41.2,92.7
		c-25.2,28-56.5,45.5-93.7,52.1c-6.2,1.1-12.4,1.7-18.6,2.5c-6.4,0-12.8,0-19.2,0c-0.8-0.2-1.6-0.5-2.5-0.5
		c-25.6-1.8-49.6-9.1-71.5-22.5c-42.4-26-68.6-63.5-77.7-112.6c-1.1-6.1-1.7-12.4-2.6-18.6c0-6.4,0-12.8,0-19.2
		c0.3-2.3,0.5-4.6,0.8-6.9c3.9-35.3,17.4-66.4,41.2-92.7c25.2-28,56.5-45.5,93.7-52.1C233.9,93.6,240.2,93,246.4,92.1z"/>
</g>
</svg>
