<?xml version="1.0" encoding="utf-8"?><svg version="1.1" id="Capa_1" xmlns="http://www.w3.org/2000/svg" xmlns:xlink="http://www.w3.org/1999/xlink" x="0px" y="0px" viewBox="0 0 512 512" style="enable-background:new 0 0 512 512;" xml:space="preserve"><style type="text/css">.st0{fill:none;stroke:#FFFFFF;stroke-width:20;stroke-miterlimit:10;}.st1{fill:#FFFFFF;}</style><g></g><rect x="149.8" y="198" class="st0" width="212.3" height="116"/><g><path class="st1" d="M0,386v-79.6h12.2c15.4,0,29.8-5.2,40.8-14.7c11.1-9.6,17.2-22.5,17.2-36.2c0-13.7-6.1-26.6-17.2-36.2c-10.9-9.5-25.4-14.7-40.8-14.7H0v-79.6h512l0,79.6h-12.2c-15.4,0-29.8,5.2-40.8,14.7c-11.1,9.6-17.2,22.5-17.2,36.2c0,13.7,6.1,26.6,17.2,36.2c10.9,9.5,25.4,14.7,40.8,14.7l12.2,0V386H0z M24.4,185.3l4.2,0.7c15.9,2.8,30.5,9.5,42.1,19.6c15.4,13.4,23.9,31.1,23.9,49.9c0,18.8-8.5,36.5-23.9,49.9c-11.6,10-26.1,16.8-42.1,19.6l-4.2,0.7l0,40.2h463.3l0-40.2l-4.2-0.7c-15.9-2.8-30.5-9.5-42.1-19.6c-15.4-13.4-23.9-31.1-23.9-49.9c0-18.8,8.5-36.5,23.9-49.9c11.6-10,26.1-16.8,42.1-19.6l4.2-0.7l0-40.2H24.4L24.4,185.3z"/></g></svg>