<?xml version="1.0" encoding="UTF-8"?> <!-- Generator: Adobe Illustrator 22.0.1, SVG Export Plug-In . SVG Version: 6.00 Build 0) --> <svg xmlns="http://www.w3.org/2000/svg" xmlns:xlink="http://www.w3.org/1999/xlink" id="Layer_1" x="0px" y="0px" viewBox="0 0 512 512" style="enable-background:new 0 0 512 512;" xml:space="preserve"> <style type="text/css"> .st0{fill:#009D9B;} </style> <path class="st0" d="M121,256v168.6c-17.5,6.2-30,22.9-30,42.4v45h330v-45c0-19.6-12.5-36.2-30-42.4V256c0-74.4-60.6-135-135-135 S121,181.6,121,256z M391,482H121v-15c0-8.3,6.7-15,15-15h240c8.3,0,15,6.7,15,15V482z M256,151c57.9,0,105,47.1,105,105v166H151 V256C151,198.1,198.1,151,256,151z"></path> <path class="st0" d="M241,211h30v90h-30V211z"></path> <path class="st0" d="M241,331h30v30h-30V331z"></path> <path class="st0" d="M0,241h61v30H0V241z"></path> <path class="st0" d="M451,241h61v30h-61V241z"></path> <path class="st0" d="M425.7,65.1l21.2,21.2l-42.4,42.4l-21.2-21.2L425.7,65.1z"></path> <path class="st0" d="M107.5,128.7L65.1,86.3l21.2-21.2l42.4,42.4L107.5,128.7z"></path> <path class="st0" d="M241,0h30v61h-30V0z"></path> </svg> 