<svg id="Layer_1" data-name="Layer 1" xmlns="http://www.w3.org/2000/svg" viewBox="0 0 223.41 161.81">
  <defs>
    <style>
      .cls-1 {
        fill: #009d9b;
      }
    </style>
  </defs>
  <title>pattern2</title>
  <g>
    <path class="cls-1" d="M133.16,27.06V125H35.26V27.06h97.9m2.72-2.72H32.54V127.68H135.88V24.34Z"/>
    <path class="cls-1" d="M84.21,6.79,153.43,76,84.21,145.23,15,76,84.21,6.79m0-3.85L11.14,76l73.07,73.07L157.28,76,84.21,2.94Z"/>
    <path class="cls-1" d="M84.66,149.35l-.13-.06L32.74,127.48l-.06-.13L10.87,75.56l.06-.14L32.74,23.63l.13-.05L84.66,2.68l51.93,21,20.95,51.93-20.95,51.92ZM33.26,127l51.4,21.65L136.07,127l20.74-51.4L136.07,24.15,84.66,3.41,33.26,24.15,11.61,75.56Z"/>
    <path class="cls-1" d="M62.91,37.94A13.15,13.15,0,1,1,76.05,24.8,13.16,13.16,0,0,1,62.91,37.94Zm0-23.57A10.43,10.43,0,1,0,73.33,24.8,10.44,10.44,0,0,0,62.91,14.37Z"/>
    <path class="cls-1" d="M105.51,37.94A13.15,13.15,0,1,1,118.65,24.8,13.16,13.16,0,0,1,105.51,37.94Zm0-23.57A10.43,10.43,0,1,0,115.93,24.8,10.43,10.43,0,0,0,105.51,14.37Z"/>
    <path class="cls-1" d="M135.42,67.85a13.14,13.14,0,1,1,13.15-13.14A13.16,13.16,0,0,1,135.42,67.85Zm0-23.57a10.43,10.43,0,1,0,10.43,10.43A10.43,10.43,0,0,0,135.42,44.28Z"/>
    <path class="cls-1" d="M33,67.85A13.14,13.14,0,1,1,46.14,54.71,13.16,13.16,0,0,1,33,67.85Zm0-23.57A10.43,10.43,0,1,0,43.42,54.71,10.44,10.44,0,0,0,33,44.28Z"/>
    <path class="cls-1" d="M62.91,140.37a13.15,13.15,0,1,1,13.14-13.15A13.16,13.16,0,0,1,62.91,140.37Zm0-23.57a10.43,10.43,0,1,0,10.42,10.42A10.43,10.43,0,0,0,62.91,116.8Z"/>
    <path class="cls-1" d="M105.51,140.37a13.15,13.15,0,1,1,13.14-13.15A13.16,13.16,0,0,1,105.51,140.37Zm0-23.57a10.43,10.43,0,1,0,10.42,10.42A10.43,10.43,0,0,0,105.51,116.8Z"/>
    <path class="cls-1" d="M135.42,110.45a13.14,13.14,0,1,1,13.15-13.14A13.16,13.16,0,0,1,135.42,110.45Zm0-23.56a10.42,10.42,0,1,0,10.43,10.42A10.43,10.43,0,0,0,135.42,86.89Z"/>
    <path class="cls-1" d="M33,110.45A13.14,13.14,0,1,1,46.14,97.31,13.16,13.16,0,0,1,33,110.45Zm0-23.56A10.42,10.42,0,1,0,43.42,97.31,10.43,10.43,0,0,0,33,86.89Z"/>
    <path class="cls-1" d="M184.37,105.47a29,29,0,1,1,29-29A29,29,0,0,1,184.37,105.47Zm0-55.29a26.29,26.29,0,1,0,26.28,26.28A26.31,26.31,0,0,0,184.37,50.18Z"/>
  </g>
</svg>
