<?xml version="1.0" encoding="UTF-8"?> <svg xmlns="http://www.w3.org/2000/svg" id="Layer_1" data-name="Layer 1" viewBox="0 0 540 900"><defs><style> .cls-1 { fill: #089d9b; } </style></defs><title>building_3_emirates</title><g id="kN0ma4.tif"><g><path class="cls-1" d="M137,879.8q0-44,.09-88.08,0-194.44-.07-388.89a12.25,12.25,0,0,1,3.9-9.62c30.53-30.34,60.89-60.84,91.42-91.18a11.87,11.87,0,0,0,3.94-9.59c-.3-10.17.07-20.35-.19-30.52-.1-3.7.8-6.5,3.75-8.64,4.16-3,5.34-7,5.19-12.14-.36-12.17-.11-24.35-.11-36.53v-5.4l8,.66V362.06l-5.13,1v36.26l-7.86.74a13.48,13.48,0,0,0-.45,2.41c0,18.18.1,36.37-.14,54.54-.06,4.61,1.21,8.11,4.84,10.76,5,3.66,6.28,8.42,6.27,14.63q-.32,139.63-.16,279.28,0,59-.12,118.09Z"></path><path class="cls-1" d="M288.18,879.8c-.06-26.35-.2-52.7-.16-79,0-33.7.3-67.39.3-101.08,0-34.37-.22-68.73-.34-103.09v-5.92h11.07V534.58a12.84,12.84,0,0,0-2-.41c-9.61-.44-9.6-.43-9.6-9.9q0-41.79,0-83.57,0-45.19,0-90.39c0-.83.07-1.65.11-2.43,5.4-1,6.42-.24,6.43,4.8,0,14.52,0,29,0,43.54,0,1.59,0,4,.93,4.63,5.77,3.66,4.07,9.28,4.18,14.39.17,7.65,0,15.31.33,22.95a10,10,0,0,0,2.6,6q23.51,23.9,47.41,47.42c1.54,1.52,4.33,1.75,6.51,2.65,2.6,1.07,5.75,1.6,7.67,3.42,8.71,8.26,17.16,16.79,25.45,25.47a10.26,10.26,0,0,1,2.63,6.45q.19,112.1.11,224.17,0,61.05,0,122.08a34.89,34.89,0,0,0,.43,3.94Z"></path></g></g></svg> 