<?xml version="1.0" encoding="UTF-8"?> <svg xmlns="http://www.w3.org/2000/svg" id="Layer_1" data-name="Layer 1" viewBox="0 0 50 50"><defs><style> .cls-1 { fill: #009d9b; } </style></defs><title>icon_dumbell</title><path class="cls-1" d="M41.45,18.64,38.76,16l2-2a1,1,0,0,0,0-1.35l-2.7-2.7a1,1,0,0,0-1.35,0l-2,2L32,9.22a1.9,1.9,0,0,0-2.69,2.69l9.42,9.42a1.9,1.9,0,1,0,2.69-2.69Z"></path><path class="cls-1" d="M22.22,37.89l-9.41-9.42a1.91,1.91,0,1,0-2.7,2.69l2.69,2.69-2,2a1,1,0,0,0-.28.67.93.93,0,0,0,.28.67l2.7,2.71a1,1,0,0,0,1.34,0l2-2,2.68,2.69a1.9,1.9,0,0,0,2.69-2.69Z"></path><path class="cls-1" d="M26.65,20l-5.77,5.79,4,4L30.69,24Z"></path><path class="cls-1" d="M38.76,24,26.65,11.92A1.9,1.9,0,0,0,24,14.61l12.11,12.1A1.9,1.9,0,1,0,38.76,24Z"></path><path class="cls-1" d="M27.6,35.2,15.5,23.09a1.9,1.9,0,0,0-2.69,2.69l12.1,12.11A1.9,1.9,0,1,0,27.6,35.2Z"></path></svg> 