<?xml version="1.0" encoding="UTF-8"?> <svg xmlns="http://www.w3.org/2000/svg" id="Layer_1" data-name="Layer 1" viewBox="0 0 50 50"><defs><style> .cls-1 { fill: #009d9b; } </style></defs><title>icon_calendar</title><g><path class="cls-1" d="M40.72,10.4H39.6V9.28a3.35,3.35,0,1,0-6.7,0V10.4H28.43V9.28a3.36,3.36,0,0,0-6.71,0V10.4H17.1V9.28a3.35,3.35,0,0,0-6.7,0V10.4H9.28a3.35,3.35,0,0,0-3.35,3.35v27a3.35,3.35,0,0,0,3.35,3.35H40.72a3.35,3.35,0,0,0,3.35-3.35v-27A3.35,3.35,0,0,0,40.72,10.4ZM35.13,9.28a1.12,1.12,0,0,1,2.24,0v4.47a1.12,1.12,0,0,1-2.24,0ZM24,9.28a1.12,1.12,0,1,1,2.23,0v4.47a1.12,1.12,0,1,1-2.23,0Zm-11.33,0a1.12,1.12,0,1,1,2.24,0v4.47a1.12,1.12,0,0,1-2.24,0ZM41.84,40.72a1.12,1.12,0,0,1-1.12,1.12H9.28a1.12,1.12,0,0,1-1.12-1.12v-19H41.84Zm0-21.23H8.16V13.75a1.12,1.12,0,0,1,1.12-1.12H10.4v1.12a3.35,3.35,0,0,0,6.7,0V12.63h4.62v1.12a3.36,3.36,0,0,0,6.71,0V12.63H32.9v1.12a3.35,3.35,0,1,0,6.7,0V12.63h1.12a1.12,1.12,0,0,1,1.12,1.12Z"></path><path class="cls-1" d="M38.49,24h-27a1.11,1.11,0,0,0-1.11,1.11V38.49a1.11,1.11,0,0,0,1.11,1.11h27a1.11,1.11,0,0,0,1.11-1.11V25.07A1.11,1.11,0,0,0,38.49,24ZM17.1,37.37H12.63V32.9H17.1Zm0-6.71H12.63V26.19H17.1ZM24,37.37H19.34V32.9H24Zm0-6.71H19.34V26.19H24Zm6.7,6.71H26.19V32.9h4.47Zm0-6.71H26.19V26.19h4.47Zm6.71,6.71H32.9V32.9h4.47Zm0-6.71H32.9V26.19h4.47Z"></path></g></svg> 