<?xml version="1.0" encoding="UTF-8"?> <svg xmlns="http://www.w3.org/2000/svg" id="Layer_1" data-name="Layer 1" viewBox="0 0 540 900"><defs><style> .cls-1 { fill: #089d9b; } </style></defs><title>building_4_cullinan</title><g><g><g><rect class="cls-1" x="310.15" y="413.51" width="45.05" height="466.29"></rect><rect class="cls-1" x="324.04" y="403.08" width="91.82" height="476.73"></rect><rect class="cls-1" x="324.04" y="515.06" width="103.52" height="364.74"></rect><rect class="cls-1" x="287.94" y="714.98" width="139.63" height="164.82"></rect></g><rect class="cls-1" x="310.15" y="405.08" width="12.69" height="2.18"></rect><rect class="cls-1" x="310.15" y="411.35" width="12.69" height="2.18" transform="translate(728.94 95.95) rotate(90)"></rect></g><g><g><rect class="cls-1" x="183.79" y="413.51" width="45.05" height="466.29" transform="translate(412.63 1293.32) rotate(-180)"></rect><rect class="cls-1" x="123.12" y="403.08" width="91.82" height="476.73" transform="translate(338.06 1282.88) rotate(-180)"></rect><rect class="cls-1" x="111.42" y="515.06" width="103.52" height="364.74" transform="translate(326.36 1394.86) rotate(-180)"></rect><rect class="cls-1" x="111.42" y="714.98" width="139.63" height="164.82" transform="translate(362.47 1594.78) rotate(-180)"></rect><rect class="cls-1" x="111.42" y="841.17" width="316.59" height="38.64" transform="translate(539.43 1720.97) rotate(-180)"></rect></g><rect class="cls-1" x="216.14" y="405.08" width="12.69" height="2.18" transform="translate(444.98 812.33) rotate(-180)"></rect><rect class="cls-1" x="216.14" y="411.35" width="12.69" height="2.18" transform="translate(634.93 189.95) rotate(90)"></rect></g></g></svg> 