<?xml version="1.0" encoding="utf-8"?>
<!-- Generator: Adobe Illustrator 21.1.0, SVG Export Plug-In . SVG Version: 6.00 Build 0)  -->
<svg version="1.1" id="regular" xmlns="http://www.w3.org/2000/svg" xmlns:xlink="http://www.w3.org/1999/xlink" x="0px" y="0px"
	 viewBox="0 0 512 512" style="enable-background:new 0 0 512 512;" xml:space="preserve">
<style type="text/css">
	.st0{fill:#FFFFFF;}
</style>
<g>
	<path class="st0" d="M340.6,234.5c-5.7-1.2-11.4,2.4-12.6,8.1c-10.2,47.5-96.4,47.7-103.2,0.2c-0.8-5.8-6.3-9.9-12-9
		c-5.8,0.8-9.8,6.2-9,12c10.2,71.1,129.9,71.4,144.9,1.2C350,241.4,346.3,235.7,340.6,234.5L340.6,234.5z"/>
	<path class="st0" d="M321.4,224.3c13.5,0,24.4-10.9,24.4-24.4s-10.9-24.4-24.4-24.4S297,186.5,297,199.9
		C297,213.4,307.9,224.3,321.4,224.3z M324.6,199.9c0,3.5-6.5,3.5-6.5,0C318.2,195.7,324.6,195.7,324.6,199.9z"/>
	<path class="st0" d="M238.5,224.3c13.5,0,24.4-10.9,24.4-24.4s-10.9-24.4-24.4-24.4s-24.4,10.9-24.4,24.4
		C214.1,213.4,225,224.3,238.5,224.3z M241.7,199.9c0,3.5-6.5,3.5-6.5,0C235.3,195.7,241.7,195.7,241.7,199.9z"/>
	<path class="st0" d="M335.9,103.6c-52.3-20.3-110.1-11.3-154.6,24c-45.5,36.5-48.8,80.1-51,109c-2.1,27-3.9,29.2-13.2,29.2
		c-10.4,0-20,6.1-24.4,15.2c-4.6,9.3-3.7,20.2,2.5,28.7c15.5,20.9,27,28.4,53.5,42.8c4.4,2.4,9.8,1.5,13.3-3.1
		c-2.6,5.8-3.7,12.4-3,19.3c2.9,33.8,45.4,47.2,67.3,21.3c5.7-6.8,8.7-15.1,8.8-23.9c0.6,5,4.5,9.1,9.7,9.4
		c7.9,0.5,14.8,0.6,21.7,0.3c5.4-0.2,9.6-4.5,10-9.8c0.5,22.4,18.5,37.5,38,37.5c1.1,0,2.2,0,3.3-0.1c12.1-1,22.8-7.5,29.2-17.8
		c6.4-10.3,7.6-22.6,3.2-33.9c-0.6-1.5-1.3-2.9-2.1-4.3c3.3,3.8,9.1,5.4,13.6,2.7c48.8-29.5,74.4-83.9,65.2-138.6
		C418.9,162.8,384.9,122.5,335.9,103.6L335.9,103.6z M198.5,382.3c-9.3,0.8-17.6-6.1-18.4-15.6c-1.2-11.7,7.8-18.1,17.6-18.1
		c8.6,0,15.4,4.9,16.4,15.4C214.8,373.3,207.9,381.5,198.5,382.3L198.5,382.3z M328.9,374.3c-2.9,4.6-7.6,7.5-13,8
		c-14.9,1.3-24.2-16.1-14.6-27.7c8.3-10.1,24.5-7.4,29.1,4.7v0C332.3,364.3,331.8,369.8,328.9,374.3z M351.6,331.3
		c-4.6,2.2-7.4,7.7-5.4,13c-7.6-11.4-21-18.2-35.1-17c-10.3,0.9-19.6,5.7-26.2,13.7c-5.4,6.6-8.3,14.8-8.6,23
		c-0.6-5.4-5-9.6-10.8-9.4c-6.2,0.3-12.6,0.2-19.5-0.3c-5.5-0.2-10.1,3.6-10.9,8.9c0-0.4,0-0.8,0-1.2c0,0,0,0,0-0.1
		c-3-32.5-38-43.8-61.3-27.2c-4.5,3.2-7.9,7.5-10.4,12.1c1.9-4.9,0.1-10.5-4.6-13.1c-25.8-14.1-33.8-19.6-46.5-36.8
		c-1.5-2-1.7-4.5-0.5-6.8c1-2.1,3-3.3,5.4-3.3c30.6,0,32.6-25.9,34.3-48.8c2.1-28.2,4.8-63.3,43.1-94
		c38.5-30.5,88.6-38.3,133.8-20.8c41.9,16.2,70.9,50.4,77.7,91.6C413.7,260.7,392.4,306.3,351.6,331.3L351.6,331.3z"/>
</g>
</svg>
