<?xml version="1.0" encoding="UTF-8"?> <svg xmlns="http://www.w3.org/2000/svg" id="Layer_1" data-name="Layer 1" viewBox="0 0 50 50"><defs><style> .cls-1 { fill: #009d9b; } </style></defs><title>icon_building</title><g><path class="cls-1" d="M43.12,45.58H40.84V21.32a.74.74,0,0,0-.74-.73H29.81V3.68A.73.73,0,0,0,29.08,3H10a.74.74,0,0,0-.74.73v41.9H6.88a.74.74,0,0,0,0,1.47H43.12a.74.74,0,0,0,0-1.47Zm-25.8,0H14.38V39a.74.74,0,0,1,.73-.74h1.47a.74.74,0,0,1,.74.74Zm2.94-24.26V45.58H18.79V39a2.21,2.21,0,0,0-2.21-2.21H15.11A2.21,2.21,0,0,0,12.91,39v6.61H10.7V4.42H28.34V20.59H21A.73.73,0,0,0,20.26,21.32ZM39.37,45.58H21.73V22.06H39.37Z"></path><path class="cls-1" d="M25.4,13.24H21a.73.73,0,0,0-.73.73v4.41a.74.74,0,0,0,.73.74H25.4a.74.74,0,0,0,.74-.74V14A.74.74,0,0,0,25.4,13.24Zm-.73,4.41H21.73V14.71h2.94Z"></path><path class="cls-1" d="M25.4,5.89H21a.73.73,0,0,0-.73.73V11a.74.74,0,0,0,.73.74H25.4a.74.74,0,0,0,.74-.74V6.62A.74.74,0,0,0,25.4,5.89Zm-.73,4.41H21.73V7.36h2.94Z"></path><path class="cls-1" d="M18.05,13.24H13.64a.73.73,0,0,0-.73.73v4.41a.74.74,0,0,0,.73.74h4.41a.74.74,0,0,0,.74-.74V14A.74.74,0,0,0,18.05,13.24Zm-.73,4.41H14.38V14.71h2.94Z"></path><path class="cls-1" d="M18.05,5.89H13.64a.73.73,0,0,0-.73.73V11a.74.74,0,0,0,.73.74h4.41a.74.74,0,0,0,.74-.74V6.62A.74.74,0,0,0,18.05,5.89Zm-.73,4.41H14.38V7.36h2.94Z"></path><path class="cls-1" d="M18.05,20.59H13.64a.73.73,0,0,0-.73.73v4.42a.73.73,0,0,0,.73.73h4.41a.74.74,0,0,0,.74-.73V21.32A.74.74,0,0,0,18.05,20.59ZM17.32,25H14.38V22.06h2.94Z"></path><path class="cls-1" d="M18.05,27.94H13.64a.74.74,0,0,0-.73.74v4.41a.73.73,0,0,0,.73.73h4.41a.74.74,0,0,0,.74-.73V28.68A.74.74,0,0,0,18.05,27.94Zm-.73,4.41H14.38V29.41h2.94Z"></path><path class="cls-1" d="M32,36.76h4.41a.73.73,0,0,0,.73-.73V31.62a.73.73,0,0,0-.73-.74H32a.74.74,0,0,0-.74.74V36A.74.74,0,0,0,32,36.76Zm.73-4.41h2.94v2.94H32.75Z"></path><path class="cls-1" d="M32,29.41h4.41a.73.73,0,0,0,.73-.73V24.26a.73.73,0,0,0-.73-.73H32a.74.74,0,0,0-.74.73v4.42A.74.74,0,0,0,32,29.41ZM32.75,25h2.94v2.94H32.75Z"></path><path class="cls-1" d="M32,44.11h4.41a.73.73,0,0,0,.73-.73V39a.73.73,0,0,0-.73-.74H32a.74.74,0,0,0-.74.74v4.41A.74.74,0,0,0,32,44.11Zm.73-4.41h2.94v2.94H32.75Z"></path><path class="cls-1" d="M24.67,36.76h4.41a.73.73,0,0,0,.73-.73V31.62a.73.73,0,0,0-.73-.74H24.67a.74.74,0,0,0-.74.74V36A.74.74,0,0,0,24.67,36.76Zm.73-4.41h2.94v2.94H25.4Z"></path><path class="cls-1" d="M24.67,29.41h4.41a.73.73,0,0,0,.73-.73V24.26a.73.73,0,0,0-.73-.73H24.67a.74.74,0,0,0-.74.73v4.42A.74.74,0,0,0,24.67,29.41ZM25.4,25h2.94v2.94H25.4Z"></path><path class="cls-1" d="M24.67,44.11h4.41a.73.73,0,0,0,.73-.73V39a.73.73,0,0,0-.73-.74H24.67a.74.74,0,0,0-.74.74v4.41A.74.74,0,0,0,24.67,44.11Zm.73-4.41h2.94v2.94H25.4Z"></path></g></svg> 