<?xml version="1.0" encoding="UTF-8"?> <svg xmlns="http://www.w3.org/2000/svg" viewBox="0 0 161.22 161.22"><defs><style> .cls-1 { fill: #009d9b; } </style></defs><title>Asset 20</title><g id="Layer_2" data-name="Layer 2"><g id="Layer_1-2" data-name="Layer 1"><path class="cls-1" d="M131.61,29.61v102h-102v-102h102m6-6h-114v114h114v-114Z"></path><path class="cls-1" d="M80.61,8.49l72.13,72.12L80.61,152.74,8.49,80.61,80.61,8.49m0-8.49L0,80.61l80.61,80.61,80.61-80.61L80.61,0Z"></path><path class="cls-1" d="M80.61,63.61a17,17,0,1,1-17,17,17,17,0,0,1,17-17m0-6a23,23,0,1,0,23,23,23,23,0,0,0-23-23Z"></path></g></g></svg> 