<?xml version="1.0" encoding="UTF-8"?> <svg xmlns="http://www.w3.org/2000/svg" id="Layer_1" data-name="Layer 1" viewBox="0 0 50 50"><defs><style> .cls-1 { fill: #009d9b; } </style></defs><title>icon_binocular</title><path class="cls-1" d="M46,25.25c-.29-.6-6.58-11-6.74-11.23a6.36,6.36,0,0,0-5.45-3,5.86,5.86,0,0,0-.94.07h0a2.95,2.95,0,0,0-5.46,1.54v5.15H23.6V12.58A2.95,2.95,0,0,0,18.14,11,5.86,5.86,0,0,0,17.2,11a6.36,6.36,0,0,0-5.45,3L10.5,16.11a.72.72,0,0,0,1.24.73c1-1.63,1.21-2,1.24-2.07a5,5,0,0,1,9.18,2.6h0v7.09a9.81,9.81,0,0,0-12.8-3.63c.35-.57.71-1.18,1.07-1.79a.72.72,0,0,0-1.24-.74C7.66,20.87,5.26,24.72,5,25.35A9.8,9.8,0,1,0,23.6,29.57V27.65h3.8v1.92a9.8,9.8,0,0,0,19.6,0A9.64,9.64,0,0,0,46,25.25ZM22.16,13.33a6.45,6.45,0,0,0-2.51-1.87,1.46,1.46,0,0,1,1-.39,1.52,1.52,0,0,1,1.51,1.51ZM13.8,37.92a8.36,8.36,0,1,1,8.36-8.35A8.37,8.37,0,0,1,13.8,37.92Zm9.8-14.47V19.17h3.8v4.28Zm3.8,2.76H23.6V24.89h3.8Zm1.44-13.63a1.52,1.52,0,0,1,1.51-1.51,1.46,1.46,0,0,1,1,.39,6.45,6.45,0,0,0-2.51,1.87Zm0,4.79h0A5,5,0,0,1,38,14.77c.09.14,1.89,3.16,3.62,6.06a9.81,9.81,0,0,0-12.8,3.63V17.37ZM37.2,37.92a8.36,8.36,0,1,1,8.36-8.35A8.37,8.37,0,0,1,37.2,37.92Z"></path><path class="cls-1" d="M43.51,27.3a.72.72,0,1,0-1.35.49A5.3,5.3,0,1,1,41.05,26a.72.72,0,0,0,1.06-1,6.67,6.67,0,1,0,1.4,2.3Z"></path><path class="cls-1" d="M13.8,22.86a6.71,6.71,0,1,0,6.7,6.71A6.71,6.71,0,0,0,13.8,22.86Zm0,12a5.27,5.27,0,1,1,5.26-5.26A5.27,5.27,0,0,1,13.8,34.83Z"></path></svg> 