<?xml version="1.0" encoding="UTF-8"?> <svg xmlns="http://www.w3.org/2000/svg" id="Layer_1" data-name="Layer 1" viewBox="0 0 540 900"><defs><style>.cls-1{fill:#4bc1bc;}</style></defs><title>building_petronas</title><g id="_663GsK" data-name="663GsK"><path class="cls-1" d="M403.58,196.3l8.75.55v46.21l9.08.51v66.27l9,.6V409.1l6.78.76V879.8H322v-6.6q0-101.61-.12-203.22a19.18,19.18,0,0,0-2.84-9.68C303.75,636,288.18,612,272.67,587.82c-.78-1.21-1.7-2.33-2.86-3.9-1.22,1.71-2.21,3-3.08,4.33-15.51,24.13-31.08,48.23-46.42,72.47a17.44,17.44,0,0,0-2.55,8.78q-.21,101.85-.11,203.72v6.41H102.37V409.91l6.54-.71V310.5l9-.6V243.66l9.08-.59V197l9.11-.72V182.79c0-5.51.27-11,0-16.52-1.18-20.17,6.91-37,18.51-52.64a13.06,13.06,0,0,0,2.53-7.07c.38-23.86.51-47.71.71-71.57a14.59,14.59,0,0,1,.15-4c.25-.82,1.37-1.37,2.1-2,.58.63,1.5,1.19,1.67,1.92a18.22,18.22,0,0,1,.16,4c.23,24,.39,48.05.79,72.07a12,12,0,0,0,2.42,6.56c11.72,15.61,19.59,32.46,18.83,52.58-.37,10-.06,19.94-.06,30.1l8.77.8v46.07l8.82.51v66.3l9.41.56v98.7l6.55.71V545h104.5V410l6.74-.84V310.48l9.23-.55V243.65l9-.56V197l8.93-.81c0-7.66.44-15.17-.08-22.6-1.63-23.34,5.19-43.73,20.21-61.56,1-1.18,1.1-3.37,1.12-5.09q.44-36,.72-72.07a18.21,18.21,0,0,1,.17-4c.17-.73,1.1-1.28,1.69-1.92.72.68,1.83,1.24,2.08,2.06a15,15,0,0,1,.15,4c.19,23.69.3,47.37.71,71.06a14.88,14.88,0,0,0,2.84,8c11.41,15.6,19.24,32.27,18.24,52.25C403.18,176.07,403.58,185.91,403.58,196.3ZM275.14,574.52,321.55,647V574.52ZM217.88,645.4l.93.39,45.58-71.09H217.88Z"></path></g></svg> 