<?xml version="1.0" encoding="UTF-8"?> <svg xmlns="http://www.w3.org/2000/svg" id="Layer_1" data-name="Layer 1" viewBox="0 0 50 50"><defs><style> .cls-1 { fill: #009d9b; } </style></defs><title>icon_elephant</title><g><path class="cls-1" d="M37.36,19.3a1.12,1.12,0,1,1-1.12-1.12A1.12,1.12,0,0,1,37.36,19.3Z"></path><path class="cls-1" d="M33.52,9.25H32.05l0,0a8.35,8.35,0,0,0-7.75-1.58,10.16,10.16,0,0,0-2.87,1.6h-.93A14.53,14.53,0,0,0,6,23.76v.16a14.56,14.56,0,0,0,2.87,8.95,9.8,9.8,0,0,1,1.6,5.56v3.19a1.12,1.12,0,0,0,1.12,1.12h4.53a1.12,1.12,0,0,0,1.12-1.12V36h4.47v5.58a1.12,1.12,0,0,0,1.11,1.12h4.54a1.12,1.12,0,0,0,1.12-1.12,25.8,25.8,0,0,1,2.71-11.85l1.27-2.54,2.15.36a3.34,3.34,0,0,1,2.8,3.3v1.8a1.12,1.12,0,0,1-1.91.79,1.13,1.13,0,0,0-1.58,0l-3.15,3.16a1.11,1.11,0,0,0,0,1.58,7.71,7.71,0,0,0,7.2,2.06c3.47-.8,6.14-4.56,6.14-8.07V19.79A10.55,10.55,0,0,0,33.52,9.25Zm8.3,23a6.35,6.35,0,0,1-4.4,5.89,5.38,5.38,0,0,1-4.26-.75l1.64-1.63a3.36,3.36,0,0,0,4.79-3v-1.8a5.56,5.56,0,0,0-4.66-5.5l-3-.5a1.12,1.12,0,0,0-1.18.61l-1.64,3.27a28,28,0,0,0-2.93,11.74H23.89V34.93a1.12,1.12,0,0,0-1.12-1.12H20.54a5.55,5.55,0,0,0,1.12-3.35,1.12,1.12,0,1,0-2.24,0,3.35,3.35,0,0,1-3.35,3.35A1.12,1.12,0,0,0,15,34.93v5.58H12.65V38.43a12,12,0,0,0-2-6.81A12.47,12.47,0,0,1,8.18,24c0-.09,0-.16,0-.22A12.29,12.29,0,0,1,19.43,11.53a6.93,6.93,0,0,0-.5,1.1c-.94,2.63-.27,5.72,2,9.17l3.15,4.81A1.11,1.11,0,0,0,25.5,27a8.76,8.76,0,0,0,4.62-4.78,11,11,0,0,0,.49-4.44c0-.27,0-.51,0-.7a1.12,1.12,0,1,0-2.24,0c0,.24,0,.52,0,.8.09,2,.22,4.63-3,6.65l-2.58-3.95c-1.86-2.83-2.45-5.25-1.76-7.19A6.67,6.67,0,0,1,25,9.78c2.69-.86,4.56.43,5.8,1.29a1.56,1.56,0,0,0,.95.41h1.82a8.31,8.31,0,0,1,8.3,8.31Z"></path></g></svg> 