<?xml version="1.0" encoding="UTF-8"?> <svg xmlns="http://www.w3.org/2000/svg" id="Layer_1" data-name="Layer 1" viewBox="0 0 540 900"><defs><style> .cls-1 { fill: #089d9b; } </style></defs><title>building_2_jwmarriot</title><g id="kvDQ1M.tif"><path class="cls-1" d="M261.83,792.54l3.59,5.16c4.18-.63,10.14,2.79,12.79-4.73,1.17,1.67,1.68,3.2,2.67,3.64a13.62,13.62,0,0,0,5.68,1.08c.41,0,1.11-2.39,1.11-3.68q.07-65,0-130c0-39.55.13-79.1.13-118.66q0-62.07-.1-124.14c0-23.68.27-47.36,0-71-.07-5.47-2.12-10.89-3-16.38-.36-2.24-.06-4.6-.06-7.21,3.08-.51,4.44-1.42,1.69-4.84-1.19-1.47-.05-4.72-.19-7.15a37.36,37.36,0,0,0-1.17-5.29c1.43-.43,3.41-1.49,5.41-1.54,7.9-.2,15.82-.09,24.26-.09,0-3.33,0-6.34,0-9.35-.08-7.44-.18-14.88-.26-22.33,0-3.54,1.4-4.65,4.76-3.31s6.59,3,10.68,4.88a24.12,24.12,0,0,1-1-3.11c-.27-1.66-.38-3.35-.56-5,1.72.18,3.82-.2,5.09.65a112.67,112.67,0,0,1,9,7.41c2.2-6-1.59-10.12-3.64-14.63-1.28-2.81-1.15-5.05.73-7.38,2.67-3.3,5.36-6.6,7.85-10a6,6,0,0,0,.77-3.36c0-17.7,0-35.39-.15-53.09,0-4.18,2.37-3.3,5.3-3v22.23c0,11.47,0,22.95.08,34.42a6.79,6.79,0,0,0,1.39,3.34c2.48,3.75,5.08,7.42,7.64,11.11,2.3,3.32.23,6.24-1.37,8.71a16.51,16.51,0,0,0-2.47,11.51c4.77-3.19,8.26-8.08,15.22-8.43l-1.83,7.9,14.72-5.48v36.35c5,0,9.46,0,13.94,0,3.41,0,6.84-.09,10.25.16a29.74,29.74,0,0,1,5.26,1.2c-.79,6.12-1.45,11.31-2.15,16.71l2.26-1.32,1.21.34q-1,5.18-2.08,10.36a9.64,9.64,0,0,0-.26,1.06c-.57,6.5-1.58,13-1.61,19.52-.16,37.47-.08,74.94-.08,112.41q0,53.64,0,107.28c0,33.44.12,66.89.12,100.33q0,39.36-.14,78.72c0,2.53-.61,5.38,3.62,5,.43,0,1.48,1.72,1.49,2.65.09,9.64,0,19.29,0,28.93,0,6.56,0,13.13,0,19.91l4.78.64V879.8H117.52V811.5l4.65-.44V759.54l4.83-.48c.09-1.46.24-2.87.24-4.28q0-33.69,0-67.38c0-32.59-.14-65.18-.14-97.77,0-33.81.14-67.62.14-101.43q0-59.68-.12-119.37c0-4.76.17-9.53.1-14.29-.1-7.19-1.54-14.18-3.17-21.18-.64-2.73-.11-5.73-.11-9.14l2.7,1.69c-.65-5.39-1.27-10.57-2-16.75,1.08-.3,2.86-1.22,4.67-1.26,8-.16,16.07-.07,24.55-.07V280.91c0-1.59-.08-3.18,0-4.76.11-3.75,2-5.06,5.42-3.54,3.14,1.41,6.19,3,10.22,5l-2.6-8.76c7.43-.29,10.52,5.19,15.17,8.67a14.18,14.18,0,0,0-2.19-11.08c-3.32-4.91-3.69-9.47.91-13.55,6.87-6.1,7-13.9,6.8-22.26-.39-14.75-.11-29.52-.11-44.24,4.61-1.38,5.22-1,5.21,3.21,0,17.57-.13,35.15-.08,52.72a7.28,7.28,0,0,0,1.53,3.67c2.52,3.73,5.38,7.25,7.74,11.07,1.95,3.16.34,6.27-1.49,8.82A13.73,13.73,0,0,0,198,276.79c5.19-1.81,8.13-7.74,15-7.85-.56,2.89-1,5.28-1.54,8,3.32-1.27,6.69-2.44,9.95-3.86,4.24-1.85,4.8-1.42,4.74,3.06-.13,10.35,0,20.7,0,31.68,5.16,0,10.24,0,15.32,0,3.54,0,7.08-.09,10.62-.12,2.5,0,2.92,1.45,2.61,3.55-.21,1.44-.12,2.92-.35,4.35-.42,2.55-1,5.07-1.46,7.61a23,23,0,0,0-.14,2.58l4.06,1c-.78,3-1.53,5.71-2.25,8.48a6.85,6.85,0,0,0-.2,1.43c-.56,11.66-1.43,23.32-1.59,35-.26,19.4-.07,38.81-.07,58.22q0,24.9,0,49.8,0,31.31,0,62.62.06,50.52.14,101.06,0,55.11,0,110.22c0,13.29,0,26.58,0,39.87,0,1.64-1.29,4.19,2,4.51,2.86.28,5.31-.11,6.2-3.4C261.23,794.1,261.41,793.68,261.83,792.54Z"></path></g></svg> 