<?xml version="1.0" encoding="utf-8"?>
<!-- Generator: Adobe Illustrator 21.1.0, SVG Export Plug-In . SVG Version: 6.00 Build 0)  -->
<svg version="1.1"
	 id="svg46988" inkscape:version="0.92.0 r15299" sodipodi:docname="grab.svg" xmlns:cc="http://creativecommons.org/ns#" xmlns:dc="http://purl.org/dc/elements/1.1/" xmlns:inkscape="http://www.inkscape.org/namespaces/inkscape" xmlns:rdf="http://www.w3.org/1999/02/22-rdf-syntax-ns#" xmlns:sodipodi="http://sodipodi.sourceforge.net/DTD/sodipodi-0.dtd" xmlns:svg="http://www.w3.org/2000/svg"
	 xmlns="http://www.w3.org/2000/svg" xmlns:xlink="http://www.w3.org/1999/xlink" x="0px" y="0px" viewBox="0 0 201.4 78.2"
	 style="enable-background:new 0 0 201.4 78.2;" xml:space="preserve">
<style type="text/css">
	.st0{fill:#FFFFFF;}
</style>
<sodipodi:namedview  bordercolor="#666666" borderopacity="1.0" fit-margin-bottom="0" fit-margin-left="0" fit-margin-right="0" fit-margin-top="0" id="base" inkscape:current-layer="layer1" inkscape:cx="100.22466" inkscape:cy="38.601332" inkscape:document-units="mm" inkscape:pageopacity="0.0" inkscape:pageshadow="2" inkscape:window-height="744" inkscape:window-maximized="1" inkscape:window-width="1280" inkscape:window-x="-4" inkscape:window-y="-4" inkscape:zoom="4.0010112" pagecolor="#ffffff" showgrid="false" units="px">
	</sodipodi:namedview>
<g id="layer1" transform="translate(-61.172704,-139.11144)" inkscape:groupmode="layer" inkscape:label="Layer 1">
	<g id="g1762" transform="matrix(0.35277777,0,0,-0.35277777,112.41579,146.94416)">
		<path id="path1764" inkscape:connector-curvature="0" class="st0" d="M403.7-61.7c-13.3,13.3-30.8,20.6-49.2,20.6
			c-13.5,0-27-5-34.5-10c-15.4-10.3-28.1-21.4-50.9-50.8v-21.2c19.3,25.2,37.6,45,51.5,56c9.1,7.3,22.1,11.9,33.8,11.9
			c30.2,0,55.7-25.5,55.7-55.7v-12.7c0-14.9-5.9-28.9-16.5-39.5c-10.6-10.5-24.5-16.2-39.2-16.2c-24.8,0-46.6,17-52.6,40.3l-10-12.1
			c7.3-24.4,33.5-42.3,62.5-42.3c18.4,0,35.9,7.3,49.2,20.6c13.3,13.3,20.6,30.8,20.6,49.2v12.7C424.4-92.5,417-75,403.7-61.7
			 M100.7-55.2c9.6,0,17.9-2.1,25.4-6.3c3.5,4.4,7.1,8,9.7,10.6c-7.9,6.1-21.4,9.8-35.2,9.8c-19.6,0-37.5-7.1-50.2-20
			c-12.6-12.8-19.6-30.5-19.6-49.9v-82.6H45v82.6C45-78.1,67.9-55.2,100.7-55.2 M235.1-193.5v82.6c0,25.4-19.9,45.3-45.3,45.3
			c-11.8,0-23.1-4.8-31.8-13.5c-8.7-8.7-13.5-20-13.5-31.8v-12.7c0-24.5,20.7-45.3,45.3-45.3c6.7,0,15.9,1.7,21.5,6.3v15
			c-5.5-4.4-13.5-7.1-21.5-7.1c-17.5,0-31.1,13.7-31.1,31.1v12.7c0,17.5,13.7,31.1,31.1,31.1c17.5,0,31.1-13.7,31.1-31.1v-82.6
			H235.1z M-143.8-102.7v-4.6c0-24.5,9.3-47.4,26.2-64.4c16.9-17,39.5-26.3,63.7-26.3c19.4,0,36.7,4.4,51.2,13
			c12,7.1,17.3,14.4,17.7,15v76.2h-72.4V-108H0.8v-57.6l-0.1,0c-6.8-6.8-23-18.3-54.7-18.3c-20.7,0-39.8,7.9-53.9,22.2
			c-14,14.3-21.8,33.6-21.8,54.4v4.6c0,19.6,8.9,39.2,24.3,53.7c15.8,14.8,36.3,22.9,57.8,22.9c20.1,0,34.1-3,45.3-9.8v15.9
			c-11.7,5-25.7,7.2-45.3,7.2C-99.8-12.9-143.8-54-143.8-102.7 M100.7-79.8c5.4,0,9.9-0.9,13.5-2.6c1.8,4.4,3.6,8,6.2,12.4
			c-3.8,2.8-13,4.4-19.7,4.4c-25.8,0-45.3-19.5-45.3-45.3v-82.6h14.1v82.6C69.6-92.6,82.4-79.8,100.7-79.8 M-2.3-63.2v16.7
			c-12.8,6.9-26.8,9.9-45.3,9.9c-18.9,0-36.8-6.9-50.5-19.5c-13.7-12.6-21.2-29.2-21.2-46.7v-4.6c0-36.5,29.3-66.2,65.3-66.2
			c29.3,0,41.3,9.6,44.4,12.6v42.5h-47.8v-14.1h34.6v-21.3l-0.1,0c-4.4-1.8-13.7-5.5-31-5.5c-13.7,0-26.6,5.3-36.2,15.1
			c-9.7,9.8-15,22.9-15,37v4.6c0,28.2,26.3,52,57.5,52C-26-50.7-13.3-54.2-2.3-63.2 M331.6-89.8c6.4,6.4,14.7,10,22.9,10
			c17.5,0,31.1-13.7,31.1-31.1v-12.7c0-17.5-13.7-31.1-31.1-31.1c-8.5,0-16.6,4.6-23,13c-5.7,7.4-9.3,17.5-9.9,26.5l-11.5-14
			c2.2-10.7,7.8-21,15.7-28.2c8.2-7.4,18.3-11.5,28.6-11.5c25,0,45.3,20.3,45.3,45.3v12.7c0,11.8-4.8,23.1-13.5,31.8
			c-8.7,8.7-20,13.5-31.8,13.5c-7.5,0-19.4-2.7-33.5-15.4l0,0c-3.8-3.8-12.7-12.7-18.1-19c-9.1-9.9-22.3-24.9-33.6-39.9v-22.1
			c12.5,16.1,19.7,25.1,31.5,38.7C311.2-111.2,324.3-96.3,331.6-89.8 M120-123.7c0-18.4,7.3-35.9,20.6-49.2
			c13.3-13.3,30.8-20.6,49.2-20.6c7.8,0,15.8,1.7,21.5,4.5v14.1c-6.6-2.8-14.6-4.4-21.5-4.4c-30.2,0-55.7,25.5-55.7,55.7v12.7
			c0,30.2,25.5,55.7,55.7,55.7c15,0,29-5.7,39.5-16.2c10.5-10.5,16.2-24.5,16.2-39.5v-82.6h14.1v85.3c-0.9,18-8.6,34.9-21.7,47.5
			c-13.1,12.7-30.2,19.6-48.2,19.6c-18.4,0-35.9-7.3-49.2-20.6C127.3-75,120-92.5,120-110.9V-123.7z M283.8-68.9
			c4.3,5.2,8.8,10.5,14.1,14.9v74.7h-14.1V-68.9z M308.3-48.2v68.9h14.1v-59.2C318.6-40.4,313.3-44.1,308.3-48.2"/>
	</g>
</g>
</svg>
