<?xml version="1.0" encoding="UTF-8"?> <svg xmlns="http://www.w3.org/2000/svg" id="Layer_1" data-name="Layer 1" viewBox="0 0 540 900"><defs><style> .cls-1 { fill: #089d9b; } </style></defs><title>building_5_alkazim</title><g><g id="bFQFjx.tif"><path class="cls-1" d="M277.45,879.74V834.36c2.4-.34,4.83-.58,7.19-1.08.84-.18,2.14-1,2.16-1.55a6.12,6.12,0,0,0-1.24-3,39.36,39.36,0,0,0-2.59-3.19l4.09-.69c.06-1.12.14-2.08.16-3l1.8-76.28q1.07-45.57,2-91.13c0-1.21-1-2.5-1.7-3.63a10.78,10.78,0,0,0-2.05-1.86l11.79-3.22c.17-2.42.4-4.71.47-7,.1-3.76.05-7.51.14-11.27.15-5.76.43-11.52.52-17.28s-.34-11.6.16-17.34c.27-3.22,0-5.47-3.05-6.91-.28-.13-.46-.47-.86-.89a12.27,12.27,0,0,1,1.9-.65c3-.43,3.73-2.18,3.63-5.06-.16-4.85.08-9.71.32-14.56.12-2.53.15-4.75-2.78-5.85-1-.37-1.7-1.4-2.73-2.29a8.18,8.18,0,0,1,1.6-.68c3.28-.48,4.14-2.29,4.23-5.58a48.32,48.32,0,0,1,2-14c2.55-7.57,6-14.85,9.16-22.19.87-2,2.36-3.78,3.27-5.8,2.59-5.7,4.8-11.58,7.58-17.18,2.21-4.45,5.43-8.23,10.9-8.58,2.07-.14,2.74-.92,2.87-2.72.06-.87.21-1.73.29-2.6q2.32-25.51,4.66-51a7.87,7.87,0,0,1,.77-2l1,.15q2.13,29.17,4.25,58.39c6.86-.31,10.43,3.41,13,8.27,2.12,4.1,3.77,8.45,5.6,12.7,2.55,5.95,5.11,11.88,7.58,17.86.62,1.5.57,3.35,1.4,4.69a48.4,48.4,0,0,1,6.86,23.78c.15,3.75-.29,7.77,5.69,8.24a22.09,22.09,0,0,1-3.12,2.32c-1.94.92-2.42,2.32-2.35,4.41.16,4.82.25,9.66-.05,14.47-.22,3.61.35,6.27,4.43,6.93.11,0,.17.31.25.47-3.48,3.11-3.44,3.11-3.46,8.12,0,5.79-.19,11.58-.21,17.37,0,5.4.09,10.79.11,16.19,0,6.12,0,12.24,0,18.22l12.33,4c-3.77,1.56-4.36,4-4.34,7,.22,25,.31,50.09.42,75.14,0,6,0,11.95,0,18.11V879.8ZM353,501l8.93.79c0-2.56-4.41-7.23-6.83-7a3.24,3.24,0,0,0-2.19,2A15.33,15.33,0,0,0,353,501Zm19.46,28.74c0-1.74.52-3.4-.1-4.23a32.24,32.24,0,0,0-5.26-5.18c-.22-.19-1.93.68-1.94,1.06,0,1.9-.09,4,.69,5.62.46,1,2.52,1.11,3.85,1.63ZM321.71,520c-4.52-.21-8.09,4.78-6.73,9l6.09-2.43Zm2.82-18.27c3-.49,5-.69,6.94-1.19,1-.26,2.58-.87,2.77-1.61a5.6,5.6,0,0,0-.68-3.91c-.25-.41-2.3-.13-3.26.36a15.84,15.84,0,0,0-3.85,3A16.63,16.63,0,0,0,324.53,501.75Zm26.87-16c.85,2,1.13,4.17,2.35,5.16s3.37.82,5.11,1.16C356.87,489.09,355.41,485.93,351.4,485.73Zm-17.57,5.08,2.22-5.48c-3.61.6-5.47,3-7.55,5.93Zm34.33,24.67L366,509.57l-.94.35C365.9,511.62,363.36,514.64,368.16,515.48Zm-46.25-6.15-1-.33-1.83,5.31C323.31,513.54,321.29,510.93,321.91,509.33Z"></path></g><g id="bFQFjx.tif-2" data-name="bFQFjx.tif"><path class="cls-1" d="M145.61,879.8V751.07c0-6.16,0-12.14,0-18.11.11-25.05.2-50.09.42-75.14,0-3.06-.57-5.48-4.34-7l12.33-4c0-6,0-12.1,0-18.22,0-5.4.13-10.79.11-16.19,0-5.79-.18-11.58-.21-17.37,0-5,0-5-3.46-8.12.08-.16.14-.45.25-.47,4.08-.66,4.65-3.32,4.43-6.93-.3-4.81-.21-9.65,0-14.47.07-2.09-.41-3.49-2.35-4.41a22.09,22.09,0,0,1-3.12-2.32c6-.47,5.54-4.49,5.69-8.24a48.4,48.4,0,0,1,6.86-23.78c.83-1.34.78-3.19,1.4-4.69,2.47-6,5-11.91,7.58-17.86,1.83-4.25,3.47-8.6,5.6-12.7,2.52-4.86,6.09-8.58,12.95-8.27q2.13-29.24,4.25-58.39l1-.15a7.83,7.83,0,0,1,.76,2q2.37,25.51,4.67,51c.08.87.23,1.73.29,2.6.13,1.8.8,2.58,2.87,2.72,5.47.35,8.69,4.13,10.9,8.58,2.78,5.6,5,11.48,7.58,17.18.91,2,2.4,3.77,3.27,5.8,3.19,7.34,6.61,14.62,9.16,22.19a48.32,48.32,0,0,1,2,14c.09,3.29.95,5.1,4.23,5.58a8.18,8.18,0,0,1,1.6.68c-1,.89-1.75,1.92-2.73,2.29-2.93,1.1-2.9,3.32-2.78,5.85.24,4.85.48,9.71.32,14.56-.1,2.88.62,4.63,3.63,5.06a12.27,12.27,0,0,1,1.9.65c-.4.42-.58.76-.86.89-3,1.44-3.32,3.69-3.05,6.91.5,5.74.07,11.56.16,17.34s.37,11.52.52,17.28c.09,3.76,0,7.51.14,11.27.07,2.3.3,4.59.47,7l11.79,3.22a10.78,10.78,0,0,0-2.05,1.86c-.71,1.13-1.72,2.42-1.7,3.63q.91,45.55,2,91.13l1.8,76.28c0,1,.1,1.93.16,3l4.09.69a37.32,37.32,0,0,0-2.59,3.19,6.12,6.12,0,0,0-1.24,3c0,.56,1.32,1.37,2.16,1.55,2.36.5,4.79.74,7.19,1.08v45.38ZM186.2,496.87a3.24,3.24,0,0,0-2.19-2c-2.42-.26-6.8,4.41-6.84,7l8.94-.79A15.33,15.33,0,0,0,186.2,496.87Zm-16.79,31.81c1.33-.52,3.39-.68,3.85-1.63.78-1.62.7-3.72.69-5.62,0-.38-1.72-1.25-1.94-1.06a32.24,32.24,0,0,0-5.26,5.18c-.62.83-.1,2.49-.1,4.23Zm48.64-2.12,6.09,2.43c1.36-4.19-2.21-9.18-6.74-9Zm-5.38-28.18a15.84,15.84,0,0,0-3.85-3c-1-.49-3-.77-3.26-.36a5.6,5.6,0,0,0-.68,3.91c.19.74,1.73,1.35,2.77,1.61,1.93.5,3.95.7,6.94,1.19A16.63,16.63,0,0,0,212.67,498.38Zm-32.41-6.33c1.74-.34,3.9-.17,5.11-1.16s1.5-3.14,2.35-5.16C183.71,485.93,182.25,489.09,180.26,492.05Zm30.36-.79c-2.08-2.93-3.94-5.33-7.55-5.93l2.22,5.48ZM174,509.92l-.94-.35L171,515.48C175.76,514.64,173.22,511.62,174,509.92Zm46,4.39L218.19,509l-1,.33C217.83,510.93,215.8,513.54,220,514.31Z"></path></g><rect class="cls-1" x="132.38" y="820.38" width="274.41" height="59.43"></rect></g></svg> 