<svg id="Layer_1" data-name="Layer 1" xmlns="http://www.w3.org/2000/svg" viewBox="0 0 223.41 161.81">
  <defs>
    <style>
      .cls-1 {
        fill: #009d9b;
      }

      .cls-2 {
        fill: #2e3d42;
      }

      .cls-3 {
        fill: #36484c;
      }

      .cls-4 {
        fill: #fff;
      }
    </style>
  </defs>
  <title>pattern4</title>
  <g>
    <rect class="cls-1" x="75.78" y="134.66" width="16.32" height="24.47"/>
    <path class="cls-2" d="M184.1,48.55a27.49,27.49,0,0,0-18.57,7.17V48.55H145.35a11.79,11.79,0,0,0-9.74-5.87V24.08H117a11.76,11.76,0,0,0-19.8-8.15L83.94,2.68,70.68,15.93a11.76,11.76,0,0,0-19.8,8.15H32.27v18.6a11.76,11.76,0,0,0-8.14,19.8L10.87,75.74,24.13,89a11.76,11.76,0,0,0,8.14,19.8v18.61H50.88a11.76,11.76,0,0,0,19.8,8.14l13.26,13.26L97.2,135.55a11.76,11.76,0,0,0,19.8-8.14h18.61V108.8a11.73,11.73,0,0,0,9.16-5h20.76V96.67A27.65,27.65,0,1,0,184.1,48.55Z"/>
    <path class="cls-1" d="M83.94,6.52,95.28,17.86l1.86,1.86,1.92-1.8a9,9,0,0,1,15.22,6.26l.1,2.62h18.51V45.3l2.61.1A9,9,0,0,1,143,49.91l.79,1.36h19V61.86l4.54-4.13a24.93,24.93,0,1,1,0,36.93l-4.54-4.13v10.59H143.36l-.81,1.15a9,9,0,0,1-7.05,3.82l-2.61.1v18.5H114.38l-.1,2.62a9,9,0,0,1-15.22,6.26l-1.92-1.8-1.86,1.86L83.94,145,72.61,133.63l-1.87-1.86-1.92,1.8a9,9,0,0,1-15.22-6.26l-.1-2.62H35v-18.5l-2.61-.1a9,9,0,0,1-6.26-15.23l1.8-1.92-1.86-1.86L14.72,75.74,26.06,64.41l1.86-1.86-1.8-1.92A9,9,0,0,1,32.38,45.4L35,45.3V26.8H53.5l.1-2.62a9,9,0,0,1,15.22-6.26l1.92,1.8,1.87-1.86L83.94,6.52m0-3.84L70.68,15.93a11.76,11.76,0,0,0-19.8,8.15H32.27v18.6a11.76,11.76,0,0,0-8.14,19.8L10.87,75.74,24.13,89a11.76,11.76,0,0,0,8.14,19.8v18.61H50.88a11.76,11.76,0,0,0,19.8,8.14l13.26,13.26L97.2,135.55a11.76,11.76,0,0,0,19.8-8.14h18.61V108.8a11.73,11.73,0,0,0,9.16-5h20.76V96.67a27.65,27.65,0,1,0,0-40.95V48.55H145.35a11.79,11.79,0,0,0-9.74-5.87V24.08H117a11.76,11.76,0,0,0-19.8-8.15L83.94,2.68Z"/>
    <rect class="cls-3" x="50.4" y="43.11" width="65.26" height="65.26"/>
    <g>
      <path class="cls-4" d="M79.48,77.84a1.86,1.86,0,0,1-.42.15c-.17.05-.35.09-.56.13a4.39,4.39,0,0,1-2-.15,2.94,2.94,0,0,1-1-.62,2.79,2.79,0,0,1-.69-1,3.91,3.91,0,0,1,0-2.75,2.82,2.82,0,0,1,.7-1,2.86,2.86,0,0,1,1.07-.63A4.08,4.08,0,0,1,78,71.71a4.61,4.61,0,0,1,1.09.12,4.42,4.42,0,0,1,.87.3,1.51,1.51,0,0,0-.11.34l-.08.36,0,0a2,2,0,0,0-.25-.24,4.17,4.17,0,0,0-.38-.27,3.14,3.14,0,0,0-.49-.21A1.89,1.89,0,0,0,78,72a2.64,2.64,0,0,0-1,.18,2,2,0,0,0-.8.53,2.36,2.36,0,0,0-.53.9,3.92,3.92,0,0,0-.19,1.3,3.83,3.83,0,0,0,.19,1.3,2.33,2.33,0,0,0,.53.91,2,2,0,0,0,.8.53,2.64,2.64,0,0,0,1,.17,1.9,1.9,0,0,0,.6-.08,3.38,3.38,0,0,0,.51-.19,4.23,4.23,0,0,0,.42-.25l.31-.23,0,0-.08.53A1.08,1.08,0,0,1,79.48,77.84Z"/>
      <path class="cls-4" d="M80.53,75.91a2.47,2.47,0,0,1,.2-1,2,2,0,0,1,.51-.7,2,2,0,0,1,.71-.39,2.63,2.63,0,0,1,1.57,0,2,2,0,0,1,.71.39,2,2,0,0,1,.51.7,2.47,2.47,0,0,1,.2,1,2.52,2.52,0,0,1-.2,1A1.87,1.87,0,0,1,83.52,78,3.13,3.13,0,0,1,82,78,1.87,1.87,0,0,1,80.73,77,2.52,2.52,0,0,1,80.53,75.91Zm.8,0a3.57,3.57,0,0,0,.07.74,1.9,1.9,0,0,0,.23.63,1.29,1.29,0,0,0,.43.44,1.28,1.28,0,0,0,.67.16,1.26,1.26,0,0,0,.67-.16,1.24,1.24,0,0,0,.44-.44,1.9,1.9,0,0,0,.23-.63,3.89,3.89,0,0,0,0-1.47,1.75,1.75,0,0,0-.23-.63,1.24,1.24,0,0,0-.44-.44,1.26,1.26,0,0,0-.67-.16,1.28,1.28,0,0,0-.67.16,1.29,1.29,0,0,0-.43.44,1.75,1.75,0,0,0-.23.63A3.54,3.54,0,0,0,81.33,75.91Z"/>
      <path class="cls-4" d="M87.84,74.39a.84.84,0,0,0-.27,0,.76.76,0,0,0-.39.1.89.89,0,0,0-.29.26,1.62,1.62,0,0,0-.18.4,2,2,0,0,0-.06.5v1.92c0,.22,0,.39,0,.52h-.75c0-.2,0-.48,0-.83s0-.79,0-1.31v-.29c0-.23,0-.5,0-.81s0-.66,0-1.06l.19,0h.37l.19,0c0,.22,0,.39,0,.51v.37h0c.35-.66.75-1,1.19-1H88l.15,0a.84.84,0,0,0-.06.33c0,.15,0,.28,0,.41l-.06,0A.47.47,0,0,0,87.84,74.39Z"/>
      <path class="cls-4" d="M88.59,76a2.69,2.69,0,0,1,.53-1.75,1.9,1.9,0,0,1,1.54-.63,2.09,2.09,0,0,1,.83.15,1.67,1.67,0,0,1,.59.4,1.56,1.56,0,0,1,.35.58,2.36,2.36,0,0,1,.11.72v.17c0,.06,0,.12,0,.18l-1,0H90l-.59,0a.53.53,0,0,0,0,.14v.11a2.09,2.09,0,0,0,.1.67,1.62,1.62,0,0,0,.3.53,1.75,1.75,0,0,0,.49.35,1.6,1.6,0,0,0,.67.13,1.65,1.65,0,0,0,.38-.05,2.72,2.72,0,0,0,.37-.13A2.39,2.39,0,0,0,92,77.4a1.63,1.63,0,0,0,.27-.25l0,0,0,.45a2.73,2.73,0,0,1-.68.37,2.4,2.4,0,0,1-.84.15A2.56,2.56,0,0,1,89.9,78a2,2,0,0,1-.7-.43,1.84,1.84,0,0,1-.45-.68A2.13,2.13,0,0,1,88.59,76ZM90.68,74a1,1,0,0,0-.56.15,1.18,1.18,0,0,0-.38.39,1.75,1.75,0,0,0-.23.5,3.76,3.76,0,0,0-.1.53H91.8a4.73,4.73,0,0,0,0-.52,1.54,1.54,0,0,0-.17-.51,1,1,0,0,0-.34-.39A1,1,0,0,0,90.68,74Z"/>
    </g>
    <g>
      <path class="cls-4" d="M172.86,74.72c0-.42,0-.83,0-1.24l-.06-1.22.51,0,.51,0,.5,0,.51,0a4.72,4.72,0,0,1,.77.06,2,2,0,0,1,.64.22,1.17,1.17,0,0,1,.6,1.09,1.43,1.43,0,0,1-.44,1.11,2.53,2.53,0,0,1-1.16.57h0a2.37,2.37,0,0,1,1.34.42,1.37,1.37,0,0,1,.49,1.19,1.69,1.69,0,0,1-.22.9,1.67,1.67,0,0,1-.57.58,2.43,2.43,0,0,1-.78.32,4,4,0,0,1-.84.09h-1.39l-.47,0,.06-1.22c0-.4,0-.81,0-1.23Zm1.3.47a3,3,0,0,0,.66-.07,1.81,1.81,0,0,0,.59-.22,1.4,1.4,0,0,0,.42-.42,1.34,1.34,0,0,0,.15-.66,1.25,1.25,0,0,0-.14-.63,1,1,0,0,0-.36-.36,1.24,1.24,0,0,0-.5-.17,3.51,3.51,0,0,0-.55,0l-.42,0-.31,0c0,.31,0,.61,0,.91s0,.6,0,.9v.72Zm-.52,1.33c0,.32,0,.64,0,1s0,.64,0,1l.43,0,.51,0a1.62,1.62,0,0,0,.58-.11,1.25,1.25,0,0,0,.49-.31,1.39,1.39,0,0,0,.34-.51,1.79,1.79,0,0,0,.12-.68,1.45,1.45,0,0,0-.14-.67,1,1,0,0,0-.43-.41,2,2,0,0,0-.66-.21,5.75,5.75,0,0,0-.87-.06h-.43Z"/>
      <path class="cls-4" d="M178.48,77.38c0-.34,0-.63,0-.87s0-.47,0-.71v-.72c0-.26,0-.53,0-.8a1.68,1.68,0,0,0,.41,0,1.59,1.59,0,0,0,.39,0c0,.39-.06.8-.08,1.26s0,.92,0,1.4a2.49,2.49,0,0,0,.09.76.9.9,0,0,0,.21.39,1,1,0,0,0,.34.26,1.14,1.14,0,0,0,.48.1,1.17,1.17,0,0,0,.67-.18,1.06,1.06,0,0,0,.39-.43c0-.11.08-.2.1-.28a1.61,1.61,0,0,0,.07-.31c0-.12,0-.3,0-.51s0-.51,0-.89v-.8c0-.14,0-.28,0-.4s0-.25,0-.37l.2,0h.4l.19,0c0,.5-.05,1-.05,1.44s0,1,0,1.47c0,.28,0,.56,0,.84s0,.54,0,.79l-.37,0-.37,0a1.09,1.09,0,0,0,0-.18,1.34,1.34,0,0,0,0-.2V78h0a1.66,1.66,0,0,1-.64.67,1.79,1.79,0,0,1-.85.22,1.66,1.66,0,0,1-1.17-.4A1.51,1.51,0,0,1,178.48,77.38Z"/>
      <path class="cls-4" d="M183.89,78.14a1.7,1.7,0,0,0,.24.22,1.59,1.59,0,0,0,.32.16,1,1,0,0,0,.38.07,1,1,0,0,0,.34-.06.79.79,0,0,0,.3-.16.82.82,0,0,0,.21-.27.84.84,0,0,0,.07-.37.55.55,0,0,0-.17-.45,1.31,1.31,0,0,0-.41-.26,3.94,3.94,0,0,0-.55-.18,2.52,2.52,0,0,1-.54-.21,1.32,1.32,0,0,1-.41-.37,1,1,0,0,1-.17-.63,1.57,1.57,0,0,1,.1-.58,1.39,1.39,0,0,1,.31-.45,1.31,1.31,0,0,1,.5-.3,1.75,1.75,0,0,1,.67-.11,1.72,1.72,0,0,1,.6.09l.46.18a1.69,1.69,0,0,0-.14.35l-.09.32h-.11a.89.89,0,0,0-.3-.41.8.8,0,0,0-.54-.18,1,1,0,0,0-.29,0,.77.77,0,0,0-.25.14.82.82,0,0,0-.2.25.8.8,0,0,0-.07.36.65.65,0,0,0,.16.48,1.19,1.19,0,0,0,.42.26l.54.17a2,2,0,0,1,.55.2,1.15,1.15,0,0,1,.41.35,1,1,0,0,1,.17.64,1.32,1.32,0,0,1-.12.54,1.45,1.45,0,0,1-.34.48,1.66,1.66,0,0,1-.54.34,2,2,0,0,1-.72.12,2.5,2.5,0,0,1-.73-.09,2.16,2.16,0,0,1-.5-.2,2.14,2.14,0,0,0,.12-.34,1.34,1.34,0,0,0,.06-.36h.12A.85.85,0,0,0,183.89,78.14Z"/>
      <path class="cls-4" d="M188.38,73c0,.25,0,.48,0,.72s0,.46,0,.7h.39l.62,0s0,0,0,.1v.2s0,.08,0,.1h-1a2.9,2.9,0,0,0,0,.31c0,.17,0,.39,0,.63s0,.5,0,.77,0,.51,0,.72,0,.35,0,.52a1.57,1.57,0,0,0,.09.46.73.73,0,0,0,.23.33.64.64,0,0,0,.44.13l.2,0,.23-.05v.23l-.36.07a1.73,1.73,0,0,1-.38,0,1.2,1.2,0,0,1-.89-.3,1.21,1.21,0,0,1-.28-.87c0-.17,0-.36,0-.56s0-.42,0-.66,0-.5,0-.79,0-.61,0-1H187s0-.08,0-.11v-.21s0-.06,0-.09l.63,0c0-.13,0-.29,0-.48s0-.39,0-.59l.79-.34Z"/>
      <path class="cls-4" d="M190.41,73.66c0-.25,0-.5,0-.75s0-.49,0-.71,0-.42,0-.58a2.7,2.7,0,0,0,.43,0,3,3,0,0,0,.43,0c0,.16,0,.35,0,.58s0,.46,0,.71,0,.5,0,.75V76.8c0,.26,0,.51,0,.76s0,.48,0,.71,0,.4,0,.55l-.43,0-.43,0c0-.15,0-.33,0-.55s0-.46,0-.71,0-.5,0-.76V73.66Z"/>
      <path class="cls-4" d="M192.43,76.7a2.74,2.74,0,0,1,.56-1.84,2,2,0,0,1,1.63-.67,2.14,2.14,0,0,1,.87.16,1.66,1.66,0,0,1,.61.42,1.59,1.59,0,0,1,.37.61,2.37,2.37,0,0,1,.12.76v.18c0,.06,0,.13,0,.19l-1,0H193.9l-.62,0a.53.53,0,0,0,0,.14v.13a2,2,0,0,0,.11.69,1.51,1.51,0,0,0,.83.93,1.61,1.61,0,0,0,.71.14,1.31,1.31,0,0,0,.39-.05,2.05,2.05,0,0,0,.75-.36,1.5,1.5,0,0,0,.29-.27l.05,0-.06.47a2.39,2.39,0,0,1-.71.39,2.42,2.42,0,0,1-.88.17,2.81,2.81,0,0,1-.94-.16,2.15,2.15,0,0,1-.74-.46,2.34,2.34,0,0,1-.48-.71A2.38,2.38,0,0,1,192.43,76.7Zm2.2-2.21a1,1,0,0,0-.59.17,1.27,1.27,0,0,0-.4.4,1.65,1.65,0,0,0-.24.54,2.2,2.2,0,0,0-.1.55l.61,0h1.27l.63,0a5.28,5.28,0,0,0,0-.55,1.58,1.58,0,0,0-.18-.53,1,1,0,0,0-.35-.41A1,1,0,0,0,194.63,74.49Z"/>
    </g>
  </g>
</svg>
