<svg id="Layer_1" data-name="Layer 1" xmlns="http://www.w3.org/2000/svg" viewBox="0 0 223.41 161.81">
  <defs>
    <style>
      .cls-1 {
        fill: #2e3d42;
      }

      .cls-2 {
        fill: #009d9b;
      }
    </style>
  </defs>
  <title>pattern3</title>
  <g>
    <path class="cls-1" d="M184.1,48.55a27.49,27.49,0,0,0-18.57,7.17V48.55H145.35a11.79,11.79,0,0,0-9.74-5.87V24.08H117a11.76,11.76,0,0,0-19.8-8.15L83.94,2.68,70.68,15.93a11.76,11.76,0,0,0-19.8,8.15H32.27v18.6a11.76,11.76,0,0,0-8.14,19.8L10.87,75.74,24.13,89a11.76,11.76,0,0,0,8.14,19.8v18.61H50.88a11.76,11.76,0,0,0,19.8,8.14l13.26,13.26L97.2,135.55a11.76,11.76,0,0,0,19.8-8.14h18.61V108.8a11.73,11.73,0,0,0,9.16-5h20.76V96.67A27.65,27.65,0,1,0,184.1,48.55Z"/>
    <path class="cls-2" d="M83.94,6.52,95.28,17.86l1.86,1.86,1.92-1.8a9,9,0,0,1,15.22,6.26l.1,2.62h18.51V45.3l2.61.1A9,9,0,0,1,143,49.91l.79,1.36h19V61.86l4.54-4.13a24.93,24.93,0,1,1,0,36.93l-4.54-4.13v10.59H143.36l-.81,1.15a9,9,0,0,1-7.05,3.82l-2.61.1v18.5H114.38l-.1,2.62a9,9,0,0,1-15.22,6.26l-1.92-1.8-1.86,1.86L83.94,145,72.61,133.63l-1.87-1.86-1.92,1.8a9,9,0,0,1-15.22-6.26l-.1-2.62H35v-18.5l-2.61-.1a9,9,0,0,1-6.26-15.23l1.8-1.92-1.86-1.86L14.72,75.74,26.06,64.41l1.86-1.86-1.8-1.92A9,9,0,0,1,32.38,45.4L35,45.3V26.8H53.5l.1-2.62a9,9,0,0,1,15.22-6.26l1.92,1.8,1.87-1.86L83.94,6.52m0-3.84L70.68,15.93a11.76,11.76,0,0,0-19.8,8.15H32.27v18.6a11.76,11.76,0,0,0-8.14,19.8L10.87,75.74,24.13,89a11.76,11.76,0,0,0,8.14,19.8v18.61H50.88a11.76,11.76,0,0,0,19.8,8.14l13.26,13.26L97.2,135.55a11.76,11.76,0,0,0,19.8-8.14h18.61V108.8a11.73,11.73,0,0,0,9.16-5h20.76V96.67a27.65,27.65,0,1,0,0-40.95V48.55H145.35a11.79,11.79,0,0,0-9.74-5.87V24.08H117a11.76,11.76,0,0,0-19.8-8.15L83.94,2.68Z"/>
  </g>
</svg>
